<?xml version="1.0" standalone="no"?>
<!DOCTYPE svg PUBLIC "-//W3C//DTD SVG 20010904//EN"
 "http://www.w3.org/TR/2001/REC-SVG-20010904/DTD/svg10.dtd">
<svg version="1.0" xmlns="http://www.w3.org/2000/svg"
 width="600.000000pt" height="600.000000pt" viewBox="0 0 600.000000 600.000000"
 preserveAspectRatio="xMidYMid meet">
<metadata>
Created by potrace 1.14, written by Peter Selinger 2001-2017
</metadata>
<g transform="translate(0.000000,600.000000) scale(0.100000,-0.100000)"
fill="#000000" stroke="none">
<path d="M2939 5995 c-3 -2 -29 -11 -59 -19 -30 -8 -165 -47 -300 -86 -135
-39 -312 -91 -395 -115 -82 -24 -171 -50 -198 -58 -26 -9 -50 -15 -53 -15 -2
0 -35 -10 -72 -21 -73 -22 -387 -113 -467 -136 -82 -23 -256 -74 -315 -92 -30
-10 -57 -18 -60 -18 -3 -1 -25 -7 -50 -14 -25 -7 -52 -15 -60 -17 -8 -2 -76
-22 -150 -44 -74 -22 -146 -43 -160 -46 -13 -3 -52 -14 -85 -24 -33 -10 -98
-30 -145 -43 -47 -14 -121 -36 -165 -49 -110 -33 -110 -57 0 -84 6 -2 55 -17
110 -34 55 -17 107 -33 115 -35 8 -2 47 -14 85 -25 39 -12 95 -28 125 -37 30
-8 60 -18 65 -21 6 -4 19 -8 30 -9 11 -2 27 -6 35 -10 8 -3 20 -7 25 -8 6 -2
71 -21 145 -44 74 -23 144 -44 155 -47 11 -2 85 -25 165 -49 80 -25 154 -48
165 -50 11 -3 58 -17 104 -31 47 -14 92 -28 100 -29 9 -2 16 -4 16 -5 0 -1 7
-3 15 -5 8 -2 83 -25 165 -50 83 -26 157 -48 165 -50 17 -3 118 -34 140 -42 8
-4 20 -7 25 -8 6 0 17 -4 25 -8 15 -6 313 -96 340 -102 8 -2 27 -8 43 -14 15
-6 27 -8 27 -5 0 4 7 1 15 -6 8 -7 15 -9 15 -6 0 4 9 2 21 -4 11 -6 28 -13 37
-15 22 -4 183 -52 242 -72 66 -22 128 -23 185 -3 28 10 127 42 220 70 94 29
218 67 277 87 59 19 117 35 128 36 11 1 20 5 20 9 0 4 10 8 23 8 13 0 28 5 35
12 7 7 12 9 12 5 0 -3 12 -2 28 4 15 6 34 12 42 14 8 2 35 10 60 18 25 9 68
22 95 30 28 8 129 40 225 70 96 30 222 69 280 87 58 17 130 40 160 50 30 10
109 35 175 55 66 20 147 46 180 57 57 18 70 22 113 32 9 2 24 7 32 10 13 5 15
-16 14 -160 -1 -165 -1 -165 -25 -177 -23 -12 -24 -17 -27 -121 -3 -116 3
-133 44 -133 13 0 27 -3 30 -6 3 -3 -11 -37 -32 -76 -20 -39 -34 -74 -31 -78
9 -9 146 -10 160 -1 8 5 2 27 -23 75 -19 37 -36 71 -38 76 -2 4 10 7 26 7 46
0 55 19 54 124 0 110 -6 136 -33 136 -18 0 -19 9 -19 185 0 102 2 185 4 185 3
0 100 30 218 66 117 37 239 74 270 83 108 31 101 57 -22 90 -219 58 -306 82
-320 87 -8 3 -15 5 -15 5 0 0 -40 11 -90 25 -49 14 -98 27 -107 30 -10 2 -26
6 -35 8 -10 3 -34 10 -53 16 -19 6 -46 13 -60 16 -14 2 -34 9 -45 14 -11 5
-40 13 -65 18 -40 9 -281 75 -370 103 -19 5 -42 12 -50 13 -8 2 -22 5 -30 8
-8 3 -69 20 -135 38 -66 18 -133 36 -150 41 -70 21 -179 51 -194 54 -9 2 -90
25 -181 50 -91 26 -172 49 -180 51 -8 2 -46 12 -85 23 -38 11 -128 36 -198 55
-70 20 -153 43 -185 53 -31 9 -61 17 -67 18 -5 0 -30 7 -55 14 -25 7 -52 15
-60 16 -8 2 -31 9 -50 14 -38 12 -54 14 -61 6z"/>
<path d="M1228 4492 c-11 -2 -18 -13 -18 -25 -1 -12 -2 -224 -3 -471 -2 -515
-14 -456 102 -525 105 -62 406 -211 428 -211 4 0 20 -7 36 -15 30 -16 298
-105 336 -112 14 -2 28 -6 32 -9 4 -2 29 -9 56 -14 26 -6 58 -12 71 -15 12 -3
32 -7 45 -9 12 -3 31 -7 42 -9 24 -6 168 -28 210 -33 116 -13 225 -18 395 -18
239 0 312 6 535 40 142 22 144 22 152 27 5 3 26 8 48 11 22 4 48 9 57 12 9 3
26 7 37 9 12 3 30 7 41 10 11 3 28 7 38 9 132 33 472 158 536 197 17 11 39 19
49 19 9 0 17 4 17 9 0 5 10 13 23 16 27 9 242 129 276 154 24 18 24 21 23 167
-1 82 -3 181 -6 219 -2 39 -7 162 -11 275 -3 113 -8 215 -11 228 -5 27 -22 28
-77 3 -172 -78 -576 -213 -712 -237 -11 -2 -47 -10 -80 -18 -33 -8 -78 -17
-100 -20 -22 -3 -51 -8 -65 -11 -49 -10 -146 -24 -280 -40 -237 -28 -759 -21
-930 11 -37 7 -59 11 -125 19 -57 7 -69 9 -114 19 -10 2 -34 7 -52 10 -48 8
-69 12 -116 25 -22 6 -61 15 -84 20 -24 5 -81 20 -126 34 -46 14 -83 23 -83
21 0 -2 -20 5 -45 16 -25 11 -45 18 -45 16 0 -3 -24 5 -52 16 -29 11 -66 24
-83 30 -16 5 -43 16 -60 23 -16 7 -70 30 -120 51 -49 20 -108 47 -130 59 -22
11 -48 19 -57 17z"/>
<path d="M4458 2495 c-2 -2 -44 -6 -94 -9 -51 -4 -102 -9 -115 -11 -13 -3 -44
-7 -69 -10 -25 -3 -56 -7 -70 -10 -14 -3 -41 -8 -60 -11 -83 -11 -327 -76
-398 -106 -15 -6 -29 -12 -32 -13 -61 -16 -268 -117 -343 -166 -32 -22 -60
-39 -63 -39 -2 0 -38 -28 -80 -62 -138 -115 -120 -106 -151 -76 -33 30 -130
95 -193 129 -25 13 -47 26 -50 29 -18 18 -283 133 -390 169 -36 12 -74 26 -85
31 -27 11 -172 50 -204 55 -14 3 -44 9 -66 14 -37 9 -84 17 -145 27 -14 2 -43
7 -65 11 -49 9 -446 10 -499 1 -51 -8 -58 -17 -76 -95 -10 -43 -20 -67 -30
-68 -8 -1 -59 -8 -113 -15 -122 -16 -138 -27 -140 -98 -1 -48 -3 -52 -26 -53
-14 -1 -55 -3 -91 -5 -36 -2 -97 -5 -137 -7 -86 -3 -114 -21 -107 -70 5 -42
12 -86 19 -117 4 -14 8 -34 9 -45 2 -11 7 -36 10 -55 4 -19 11 -60 16 -90 6
-30 12 -66 15 -80 3 -14 8 -38 11 -55 2 -16 6 -39 8 -50 2 -11 7 -38 11 -60 3
-22 8 -47 10 -55 3 -8 7 -32 11 -54 3 -21 8 -48 10 -60 3 -11 7 -34 10 -51 2
-16 7 -41 10 -55 3 -14 8 -38 11 -55 2 -16 15 -89 29 -162 14 -73 27 -144 30
-158 2 -14 6 -37 9 -53 13 -68 35 -187 55 -297 24 -134 36 -154 99 -156 20 -1
45 -3 56 -4 11 -2 58 -6 105 -10 47 -3 101 -8 120 -10 19 -3 62 -7 95 -10 33
-2 85 -7 115 -10 30 -3 78 -8 105 -10 48 -4 84 -8 193 -20 26 -3 74 -7 107
-10 33 -2 76 -6 95 -9 34 -5 124 -15 185 -21 43 -4 127 -14 220 -27 44 -5 91
-12 105 -13 162 -20 263 -41 325 -69 70 -32 145 -48 223 -48 93 0 147 15 248
66 47 25 89 45 93 44 5 -1 56 9 91 17 7 2 69 14 100 19 14 3 34 7 46 10 12 2
45 7 74 11 29 4 62 9 74 11 12 2 39 6 61 9 22 3 74 10 115 15 41 5 98 12 125
15 28 2 73 7 100 10 99 10 151 16 210 20 33 3 89 7 125 10 163 13 292 17 508
19 219 1 235 2 248 20 8 11 15 28 15 38 1 10 2 21 3 26 1 4 6 30 11 57 5 28 9
52 10 55 2 10 16 85 20 115 2 17 18 104 34 195 39 215 42 230 46 260 2 14 6
36 9 50 3 14 8 43 11 64 3 21 7 48 10 60 8 34 16 78 21 116 2 19 9 58 14 85 5
28 12 66 15 85 3 19 7 46 10 60 11 59 17 97 20 120 2 22 14 91 30 168 2 13 7
50 11 81 9 81 1 85 -148 86 l-121 1 -32 92 c-17 51 -35 96 -39 100 -4 4 -59 7
-122 7 l-114 0 -1 25 c0 14 -1 54 -2 90 -2 106 3 104 -252 105 -118 1 -216 1
-217 0z"/>
</g>
</svg>
