<svg width="12" height="12" viewBox="0 0 12 12" fill="none" xmlns="http://www.w3.org/2000/svg">
<path d="M3.77508 10.8749C8.30227 10.8749 10.7791 7.12323 10.7791 3.87081C10.7791 3.76534 10.7768 3.65753 10.7721 3.55206C11.2539 3.20361 11.6697 2.77201 12 2.27753C11.5513 2.47718 11.0748 2.60757 10.587 2.66425C11.1006 2.35633 11.4853 1.87261 11.6695 1.30276C11.1863 1.58916 10.6578 1.79118 10.1067 1.90018C9.73542 1.50566 9.24449 1.24444 8.70984 1.1569C8.17519 1.06937 7.6266 1.1604 7.14887 1.41593C6.67115 1.67145 6.2909 2.07723 6.06692 2.57053C5.84295 3.06384 5.78771 3.61719 5.90977 4.14503C4.93125 4.09592 3.97397 3.84173 3.09999 3.39893C2.22601 2.95612 1.45485 2.3346 0.836484 1.57464C0.5222 2.1165 0.426028 2.7577 0.567515 3.36792C0.709002 3.97815 1.07753 4.5116 1.5982 4.85987C1.20731 4.84746 0.824988 4.74222 0.482813 4.55284V4.58331C0.482462 5.15195 0.679049 5.70317 1.03915 6.14326C1.39926 6.58335 1.90066 6.88516 2.45812 6.99737C2.09603 7.09644 1.71599 7.11088 1.34742 7.03956C1.50473 7.5286 1.81079 7.95632 2.22289 8.26305C2.63498 8.56977 3.13256 8.74018 3.64617 8.7505C2.77421 9.43543 1.69709 9.80694 0.588281 9.80518C0.391644 9.80488 0.1952 9.79283 0 9.76909C1.12643 10.4918 2.43677 10.8756 3.77508 10.8749Z" fill="#24262B"/>
</svg>
